HIERARCHY
ROOT root
{
	OFFSET	0	13.1	24.9
	CHANNELS 6  Xposition Yposition Zposition Xrotation Yrotation Zrotation
	JOINT spine_1
	{
		OFFSET	0	9.99999	0
		CHANNELS 3  Xrotation Yrotation Zrotation
		JOINT spine_2
		{
			OFFSET	0	112	-10
			CHANNELS 3  Xrotation Yrotation Zrotation
			JOINT spine_3
			{
				OFFSET	0	206.5	19.3
				CHANNELS 3  Xrotation Yrotation Zrotation
				JOINT spine_4
				{
					OFFSET	0	110.4	14.6
					CHANNELS 3  Xrotation Yrotation Zrotation
					JOINT neck_1
					{
						OFFSET	0	71.8	-50.3
						CHANNELS 3  Xrotation Yrotation Zrotation
						JOINT neck_2
						{
							OFFSET	0	86.2	-25.8
							CHANNELS 3  Xrotation Yrotation Zrotation
							JOINT head_ee
							{
								OFFSET	0	179.8	-8.7
								CHANNELS 3  Xrotation Yrotation Zrotation
								End Site
								{
									OFFSET	1	0	0
								}
							}
						}
					}
					JOINT left_clavicle
					{
						OFFSET	-43.2	22.4	-70.8
						CHANNELS 3  Xrotation Yrotation Zrotation
						JOINT left_shoulder
						{
							OFFSET	-93.9	-5.79999	48.7
							CHANNELS 3  Xrotation Yrotation Zrotation
							JOINT left_elbow
							{
								OFFSET	-291.4	-30.8	15.2
								CHANNELS 3  Xrotation Yrotation Zrotation
								JOINT left_lowarm_twist
								{
									OFFSET	-110.7	-3.89999	13.6
									CHANNELS 3  Xrotation Yrotation Zrotation
									JOINT left_hand
									{
										OFFSET	-110.7	-3.89999	13.6
										CHANNELS 3  Xrotation Yrotation Zrotation
										JOINT left_ee
										{
											OFFSET	-80.8	-5.10001	12.1
											CHANNELS 3  Xrotation Yrotation Zrotation
											End Site
											{
												OFFSET	1	0	0
											}
										}
									}
								}
							}
						}
					}
					JOINT right_clavicle
					{
						OFFSET	43.2	22.4	-70.8
						CHANNELS 3  Xrotation Yrotation Zrotation
						JOINT right_shoulder
						{
							OFFSET	93.9	-5.79999	48.7
							CHANNELS 3  Xrotation Yrotation Zrotation
							JOINT right_elbow
							{
								OFFSET	291.4	-30.8	15.2
								CHANNELS 3  Xrotation Yrotation Zrotation
								JOINT right_lowarm_twist
								{
									OFFSET	110.7	-3.89999	13.6
									CHANNELS 3  Xrotation Yrotation Zrotation
									JOINT right_hand
									{
										OFFSET	110.7	-3.89999	13.6
										CHANNELS 3  Xrotation Yrotation Zrotation
										JOINT right_ee
										{
											OFFSET	80.8	-5.10001	12.1
											CHANNELS 3  Xrotation Yrotation Zrotation
											End Site
											{
												OFFSET	1	0	0
											}
										}
									}
								}
							}
						}
					}
				}
			}
		}
	}
	JOINT left_hip
	{
		OFFSET	-82.8	-127.5	0.300001
		CHANNELS 3  Xrotation Yrotation Zrotation
		JOINT left_knee
		{
			OFFSET	-28.2	-396.7	2.2
			CHANNELS 3  Xrotation Yrotation Zrotation
			JOINT left_ankle
			{
				OFFSET	-11.7	-411.3	35.4
				CHANNELS 3  Xrotation Yrotation Zrotation
				JOINT left_toes
				{
					OFFSET	0	-60	-88.6
					CHANNELS 3  Xrotation Yrotation Zrotation
					JOINT left_foot_ee
					{
						OFFSET	-22.5	-16.5	-42.2
						CHANNELS 3  Xrotation Yrotation Zrotation
						End Site
						{
							OFFSET	1	0	0
						}
					}
				}
			}
		}
	}
	JOINT right_hip
	{
		OFFSET	82.8	-127.5	0.300001
		CHANNELS 3  Xrotation Yrotation Zrotation
		JOINT right_knee
		{
			OFFSET	28.2	-396.7	2.2
			CHANNELS 3  Xrotation Yrotation Zrotation
			JOINT right_ankle
			{
				OFFSET	11.7	-411.3	35.4
				CHANNELS 3  Xrotation Yrotation Zrotation
				JOINT right_toes
				{
					OFFSET	0	-60	-88.6
					CHANNELS 3  Xrotation Yrotation Zrotation
					JOINT right_foot_ee
					{
						OFFSET	22.5	-16.5	-42.2
						CHANNELS 3  Xrotation Yrotation Zrotation
						End Site
						{
							OFFSET	1	0	0
						}
					}
				}
			}
		}
	}
}
MOTION
Frames: 6
Frame Time: 0.02
3574.42 741.953 -1474.73 -162.599591371 73.7360996179 155.983041004 3.29028 1.33865 6.2874 3.31177 0.936688 6.35943 3.40748 -0.0370161 6.42766 3.3512 0.976497 6.35347 -18.0904 5.11257 -8.57889 -18.1464 14.4758 -6.04676 -0.0 0.0 -0.0 -4.56214 24.1959 -3.37238 -7.47903 -20.716 60.3989 0.984737 -26.0031 0.227378 -47.597 -3.79287 4.55136 -1.12149 19.2669 1.06669 -0.0 0.0 -0.0 10.6827 -19.5832 -18.6411 -31.4806 53.3591 -61.037 1.09976 28.5803 -0.280132 57.3878 1.54696 6.86179 -1.764 -24.8647 0.12559 0.0 0.0 0.0 -7.91813 86.9004 6.75579 -5.36872 0.183519 0.803202 18.7431 -31.5065 -3.2961 -3.35046 0.0 0.0 -0.0 0.0 -0.0 6.35862 24.5944 5.96383 -20.8991 -0.283867 -3.17682 34.8471 14.6929 4.67111 -17.3665 0.0 0.0 0.0 0.0 0.0 
3576.6036986 741.279 -1471.057807 -159.373484123 76.806660707 152.771612618 3.33148 1.28161 6.28948 3.35304 0.879627 6.3579 3.44207 -0.0896568 6.41759 3.38584 0.922928 6.35179 -17.5873 5.05241 -8.73311 -17.6238 14.5123 -6.27397 -0.0 0.0 -0.0 -4.68001 23.9346 -3.59878 -7.50808 -21.4018 60.6322 0.999123 -26.3319 0.233722 -46.4235 -3.65872 4.4829 -1.1625 19.9085 1.10435 -0.0 0.0 -0.0 11.3984 -17.7579 -20.1933 -32.7478 52.9186 -60.247 0.951591 25.2383 -0.213044 56.8419 1.50097 6.80907 -1.81128 -25.1014 0.280011 0.0 0.0 0.0 -9.94182 85.7644 8.78051 -6.35441 0.208989 0.952324 19.4544 -30.525 -3.36184 -2.99257 0.0 0.0 -0.0 0.0 -0.0 6.30596 24.7211 5.99037 -20.293 -0.292041 -3.08417 35.3773 14.2025 4.70936 -18.1596 0.0 0.0 0.0 0.0 0.0 
3636.30009059 751.366 -1460.00709438 160.518017637 59.2989185168 -160.699670359 -6.8455 -0.203698 -1.16921 -6.84475 -0.128891 -1.1798 -6.84029 0.261717 -1.1576 -6.84215 0.0756235 -1.1844 -0.0125669 3.27983 8.64632 0.200336 -1.2544 9.65665 -0.0 0.0 -0.0 10.2072 0.195821 20.0732 -2.14735 -23.8432 56.7102 0.862156 -23.1265 0.176402 23.8318 0.215478 -3.0148 -1.19504 20.4502 1.15028 -0.0 0.0 -0.0 8.63909 3.57093 -16.9372 0.125905 9.49462 -59.4476 1.14803 29.6259 -0.30361 -55.3467 4.71038 -4.93291 -2.44283 16.3411 23.9303 0.0 0.0 0.0 -13.4928 -11.1145 -2.79947 1.98286 -0.0867174 -0.291894 3.45466 19.0076 -0.510051 13.0888 -0.0 -0.0 -0.0 0.0 -0.0 -7.71902 18.3855 -3.75344 -11.1111 -0.295667 -1.67689 28.2879 -5.3112 3.70286 -31.2903 0.0 0.0 0.0 0.0 0.0 
3637.15324474 753.939 -1457.18381596 159.215540757 61.0602451231 -159.239666818 -6.78076 -0.265003 -1.169 -6.78002 -0.190085 -1.18349 -6.7742 0.203673 -1.18123 -6.77614 0.014578 -1.19857 1.07349 4.49528 8.27351 1.25339 1.0461 9.43249 -0.0 0.0 -0.0 10.322 -0.131305 20.3286 -1.8914 -23.6475 56.4926 0.910072 -24.2666 0.19566 24.1221 0.210334 -3.05152 -1.63132 20.3986 -1.45051 -0.0 0.0 -0.0 8.49971 5.7321 -16.6498 -0.654083 9.4451 -59.4098 1.07288 27.9887 -0.267393 -55.8402 4.77043 -4.95296 -2.40531 18.2284 24.4272 0.0 0.0 0.0 -13.9187 -11.0337 -2.60081 2.30328 -0.101678 -0.33878 3.17964 19.9816 -0.471366 13.5113 -0.0 -0.0 -0.0 0.0 -0.0 -7.59688 16.8721 -3.69189 -11.0979 -0.295509 -1.67486 26.5148 -6.92297 3.50437 -34.4285 0.0 0.0 0.0 0.0 0.0 
3636.73774585 753.832 -1452.34684836 158.311633333 62.9057841379 -157.994372048 -6.76565 -0.284717 -1.23002 -6.76483 -0.205877 -1.24564 -6.75826 0.208527 -1.2452 -6.76042 0.00926978 -1.2625 0.657195 4.18483 8.38315 0.845629 0.469823 9.50063 -0.0 0.0 -0.0 10.3066 -0.45716 20.3136 -1.93414 -23.6647 56.1061 0.956697 -25.3568 0.215226 24.6812 0.199902 -3.12218 -1.47827 20.5422 -0.480395 -0.0 0.0 -0.0 8.48479 5.9333 -16.6173 -1.07423 9.40571 -59.7188 1.00031 26.3591 -0.23425 -56.4515 4.84504 -4.97707 -2.09184 15.8264 21.1859 0.0 0.0 0.0 -13.9117 -11.7496 -2.7247 3.04599 -0.137365 -0.447138 0.976736 19.8411 -0.145503 13.5285 -0.0 -0.0 -0.0 0.0 -0.0 -7.65608 15.835 -3.63321 -9.38583 -0.271187 -1.4133 21.6398 -15.1854 2.96215 -35.6639 0.0 0.0 0.0 0.0 0.0 
3637.12161962 754.445 -1449.98985042 156.334462392 65.3383016808 -155.547902912 -6.63488 -0.291137 -1.34179 -6.6339 -0.205173 -1.3576 -6.62661 0.242345 -1.35146 -6.62916 0.0258868 -1.37276 -0.0864337 4.53532 9.98459 0.186376 -0.113661 11.2237 -0.0 0.0 -0.0 10.3534 -0.677698 20.4223 -1.85127 -23.0457 55.9221 1.06007 -27.7044 0.261409 26.5567 0.15988 -3.35842 -1.34078 20.3606 0.249242 -0.0 0.0 -0.0 8.6457 6.86644 -16.95 -1.22912 9.27311 -59.92 0.995496 26.2492 -0.232115 -56.8546 4.89437 -4.99254 -1.83606 15.296 19.1456 0.0 0.0 0.0 -14.0124 -12.3665 -2.43246 4.01794 -0.186189 -0.588242 0.977084 20.8955 -0.146124 12.8719 -0.0 -0.0 -0.0 0.0 -0.0 -7.40113 15.0927 -3.57243 -8.78839 -0.260861 -1.3222 14.6997 -19.7204 2.10025 -37.3037 0.0 0.0 0.0 0.0 0.0 
